<?xml version="1.0" encoding="UTF-8" standalone="no"?>
<!-- Created with Inkscape (http://www.inkscape.org/) -->

<svg
   viewBox="0 0 147.36107 270.67612"
   version="1.1"
   id="svg1"
   inkscape:version="1.4.3 (0d15f75, 2025-12-25)"
   sodipodi:docname="vectorcontent.svg"
   xmlns:inkscape="http://www.inkscape.org/namespaces/inkscape"
   xmlns:sodipodi="http://sodipodi.sourceforge.net/DTD/sodipodi-0.dtd"
   xmlns="http://www.w3.org/2000/svg"
   xmlns:svg="http://www.w3.org/2000/svg">
  <sodipodi:namedview
     id="namedview1"
     pagecolor="#ffffff"
     bordercolor="#000000"
     borderopacity="0.25"
     inkscape:showpageshadow="2"
     inkscape:pageopacity="0.0"
     inkscape:pagecheckerboard="0"
     inkscape:deskcolor="#d1d1d1"
     inkscape:document-units="mm"
     inkscape:zoom="1.8377764"
     inkscape:cx="45.707411"
     inkscape:cy="148.00495"
     inkscape:window-width="1512"
     inkscape:window-height="945"
     inkscape:window-x="0"
     inkscape:window-y="37"
     inkscape:window-maximized="0"
     inkscape:current-layer="layer1"
     showgrid="false" />
  <defs
     id="defs1">
    <rect
       x="23.457699"
       y="583.51025"
       width="131.1507"
       height="44.999264"
       id="rect1" />
    <rect
       x="23.457699"
       y="583.51025"
       width="513.92383"
       height="303.31705"
       id="rect1-1" />
    <rect
       x="23.457699"
       y="583.51025"
       width="510.20496"
       height="129.01733"
       id="rect2" />
  </defs>
  <g
     inkscape:label="Layer 1"
     inkscape:groupmode="layer"
     id="layer1"
     transform="translate(23.680582,23.680481)">
    <g
       id="g1"
       style="mix-blend-mode:normal;stroke:#241f31;stroke-width:4.2;stroke-linecap:butt;stroke-linejoin:miter;stroke-dasharray:none;stroke-dashoffset:0;stroke-opacity:1;paint-order:normal">
      <path
         style="fill:#33d17a;stroke:#241f31;stroke-width:4.2;stroke-linecap:butt;stroke-linejoin:miter;stroke-dasharray:none;stroke-dashoffset:0;stroke-opacity:1;paint-order:normal"
         d="m 85.355304,14.644706 -13.3955,13.395499 H 28.040128 l -13.3955,-13.3955 35.355337,-35.355338 z"
         id="path2"
         sodipodi:nodetypes="cccccc"
         inkscape:export-filename="logo.svg"
         inkscape:export-xdpi="25.4"
         inkscape:export-ydpi="25.4" />
      <path
         style="fill:#2ec27e;stroke:#241f31;stroke-width:4.2;stroke-linecap:butt;stroke-linejoin:miter;stroke-dasharray:none;stroke-dashoffset:0;stroke-opacity:1;paint-order:normal"
         d="M 49.999965,6.0803678 28.042815,28.042892 71.927313,28.007714 Z"
         id="path3"
         sodipodi:nodetypes="cccc" />
      <path
         style="fill:#26a269;stroke:#241f31;stroke-width:4.2;stroke-linecap:butt;stroke-linejoin:miter;stroke-dasharray:none;stroke-dashoffset:0;stroke-opacity:1;paint-order:normal"
         d="M 49.967481,49.967562 71.924634,28.005035 28.040128,28.040205 Z"
         id="path4"
         sodipodi:nodetypes="cccc" />
      <path
         style="fill:#26a269;stroke:#241f31;stroke-width:4.2;stroke-linecap:butt;stroke-linejoin:miter;stroke-dasharray:none;stroke-dashoffset:0;stroke-opacity:1;paint-order:normal"
         d="m 85.355282,14.644685 -13.395499,13.395499 1.3e-5,43.91969 13.395508,13.395509 35.355336,-35.355338 z"
         id="path11"
         sodipodi:nodetypes="cccccc"
         inkscape:export-filename="förarbete.svg"
         inkscape:export-xdpi="96"
         inkscape:export-ydpi="96" />
      <path
         style="fill:#2ec27e;stroke:#241f31;stroke-width:4.2;stroke-linecap:butt;stroke-linejoin:miter;stroke-dasharray:none;stroke-dashoffset:0;stroke-opacity:1;paint-order:normal"
         d="M 93.919635,50.000036 71.957108,71.957188 71.992274,28.072676 Z"
         id="path12"
         sodipodi:nodetypes="cccc" />
      <path
         style="fill:#33d17a;stroke:#241f31;stroke-width:4.2;stroke-linecap:butt;stroke-linejoin:miter;stroke-dasharray:none;stroke-dashoffset:0;stroke-opacity:1;paint-order:normal"
         d="m 50.03243,50.032507 21.962667,-21.957009 -0.0353,43.884378 z"
         id="path13"
         sodipodi:nodetypes="cccc" />
      <path
         style="fill:#2ec27e;stroke:#241f31;stroke-width:4.2;stroke-linecap:butt;stroke-linejoin:miter;stroke-dasharray:none;stroke-dashoffset:0;stroke-opacity:1;paint-order:normal"
         d="m 14.644626,85.355382 13.3955,-13.3955 -1.2e-5,-43.919689 -13.395509,-13.395509 -35.355339,35.35534 z"
         id="path14"
         sodipodi:nodetypes="cccccc"
         inkscape:export-filename="golvläggning.svg"
         inkscape:export-xdpi="96"
         inkscape:export-ydpi="96" />
      <path
         style="fill:#33d17a;stroke:#241f31;stroke-width:4.2;stroke-linecap:butt;stroke-linejoin:miter;stroke-dasharray:none;stroke-dashoffset:0;stroke-opacity:1;paint-order:normal"
         d="M 6.0802747,50.000031 28.0428,28.04288 28.007635,71.927392 Z"
         id="path15"
         sodipodi:nodetypes="cccc" />
      <path
         style="fill:#26a269;stroke:#241f31;stroke-width:4.2;stroke-linecap:butt;stroke-linejoin:miter;stroke-dasharray:none;stroke-dashoffset:0;stroke-opacity:1;paint-order:normal"
         d="m 49.967479,49.96756 -21.962666,21.957009 0.0353,-43.884376 z"
         id="path16"
         sodipodi:nodetypes="cccc" />
      <path
         style="fill:#2ec27e;stroke:#241f31;stroke-width:4.2;stroke-linecap:butt;stroke-linejoin:miter;stroke-dasharray:none;stroke-dashoffset:0;stroke-opacity:1;paint-order:normal"
         d="M 85.355538,85.355334 71.960105,71.959831 28.040197,71.959852 14.644605,85.355363 50.000177,120.71069 Z"
         id="path1168"
         sodipodi:nodetypes="cccccc"
         inkscape:export-filename="förarbete.svg"
         inkscape:export-xdpi="96"
         inkscape:export-ydpi="96" />
      <path
         style="fill:#26a269;stroke:#241f31;stroke-width:4.2;stroke-linecap:butt;stroke-linejoin:miter;stroke-dasharray:none;stroke-dashoffset:0;stroke-opacity:1;paint-order:normal"
         d="M 50.000183,93.919697 28.043106,71.956963 71.927819,71.99216 Z"
         id="path1170"
         sodipodi:nodetypes="cccc" />
      <path
         style="fill:#33d17a;stroke:#241f31;stroke-width:4.2;stroke-linecap:butt;stroke-linejoin:miter;stroke-dasharray:none;stroke-dashoffset:0;stroke-opacity:1;paint-order:normal"
         d="m 49.967718,50.032483 21.957046,21.962703 -43.88459,-0.0353 z"
         id="path1172"
         sodipodi:nodetypes="cccc" />
    </g>
    <text
       xml:space="preserve"
       transform="matrix(1.0812895,0,0,1.0918133,-46.502796,-506.58583)"
       id="text1"
       style="font-style:normal;font-variant:normal;font-weight:normal;font-stretch:normal;font-size:10.3898px;font-family:Futura;-inkscape-font-specification:'Futura, Normal';font-variant-ligatures:normal;font-variant-caps:normal;font-variant-numeric:normal;font-variant-east-asian:normal;text-align:center;writing-mode:lr-tb;direction:ltr;white-space:pre;shape-inside:url(#rect1);shape-padding:1.83861;display:inline;fill:#000000;fill-opacity:1;stroke:#241f31;stroke-width:0.378587;stroke-dasharray:none;paint-order:stroke markers fill"
       x="255.10248"
       y="0"
       inkscape:label="text1"><tspan
         x="30.011263"
         y="594.54749"
         id="tspan1">SUNNERÄNGS YTSKIKT</tspan></text>
    <text
       xml:space="preserve"
       transform="matrix(0.28957264,0,0,0.27846659,-31.471218,-13.603472)"
       id="text1-4"
       style="font-style:normal;font-variant:normal;font-weight:normal;font-stretch:normal;font-size:26.847px;font-family:Futura;-inkscape-font-specification:'Futura, Normal';font-variant-ligatures:normal;font-variant-caps:normal;font-variant-numeric:normal;font-variant-east-asian:normal;text-align:center;writing-mode:lr-tb;direction:ltr;white-space:pre;shape-inside:url(#rect1-1);shape-padding:7.40901;display:inline;fill:#000000;fill-opacity:1;stroke:#241f31;stroke-width:0.378587;stroke-dasharray:none;paint-order:stroke markers fill"
       x="255.10248"
       y="0"><tspan
         x="90.897215"
         y="614.69014"
         id="tspan2">Sunnerängs Ytskikt utför yt- och </tspan><tspan
         x="88.708031"
         y="648.24891"
         id="tspan3">tätskiktsinstallation med särskild </tspan><tspan
         x="41.48982"
         y="681.80769"
         id="tspan4">intriktning på installation av produkter i </tspan><tspan
         x="50.3842"
         y="715.36647"
         id="tspan5">vinyl och linoleum från Forbo, Gerflor </tspan><tspan
         x="51.360812"
         y="748.92524"
         id="tspan6">och Tarkett. Här tillämpas över tio års </tspan><tspan
         x="80.934461"
         y="782.48402"
         id="tspan7">erfarenhet och slutledning för att </tspan><tspan
         x="35.702247"
         y="816.0428"
         id="tspan8">leverera arbete av högsta kvalitet, både </tspan><tspan
         x="100.99106"
         y="849.60157"
         id="tspan9">åt privat- och företagskunder.</tspan></text>
    <path
       d="M 1.0337742,232.5461 H -1.315934 v 1.3543 h 2.28138063 v 0.79943 H -1.315934 v 1.8836 h 2.3497082 v 0.79944 h -3.2341717 v -5.6362 h 3.2341717 z m 1.8524338,6.77147 H 2.0321135 v -5.49018 H 2.886208 v 0.38694 q 0.504867,-0.4855 1.1463862,-0.4855 0.7629892,0 1.2564673,0.54026 0.5010678,0.5366 0.5010678,1.35429 0,0.79944 -0.4972715,1.33239 -0.4934781,0.52931 -1.2450813,0.52931 -0.6491118,0 -1.1615685,-0.5001 z m 2.0308482,-3.69054 q 0,-0.51105 -0.2884954,-0.83229 -0.2922888,-0.32488 -0.736418,-0.32488 -0.4707003,0 -0.762992,0.31393 -0.2922889,0.31393 -0.2922889,0.82499 0,0.5001 0.2922889,0.82499 0.2884954,0.31758 0.7591957,0.31758 0.4441292,0 0.7326217,-0.32123 0.296088,-0.32124 0.296088,-0.80309 z m 1.6019014,-0.0475 q 0,-0.77023 0.5731917,-1.31048 0.5731916,-0.54026 1.3969186,-0.54026 0.8275234,0 1.4045113,0.54391 0.5693958,0.54391 0.5693958,1.33604 0,0.79943 -0.5731921,1.33969 -0.5769879,0.53661 -1.4158972,0.53661 -0.8313197,0 -1.3931253,-0.54756 -0.5618028,-0.54026 -0.5618028,-1.35795 z m 0.8730731,0.0146 q 0,0.53295 0.296088,0.84323 0.3036777,0.31394 0.8009492,0.31394 0.5010679,0 0.8009522,-0.31028 0.2998814,-0.31029 0.2998814,-0.82864 0,-0.51836 -0.2998814,-0.82864 -0.3036777,-0.31393 -0.8009522,-0.31393 -0.4896789,0 -0.7933595,0.31393 -0.3036777,0.31393 -0.3036777,0.81039 z m 6.1229093,-1.16083 -0.706053,0.36139 q -0.167023,-0.32853 -0.413759,-0.32853 -0.117677,0 -0.20119,0.0767 -0.08351,0.073 -0.08351,0.18982 0,0.20443 0.493475,0.4052 0.679482,0.28108 0.914832,0.51835 0.23535,0.23728 0.23535,0.63882 0,0.51471 -0.394783,0.86149 -0.383391,0.32854 -0.926218,0.32854 -0.930012,0 -1.317202,-0.87245 l 0.728828,-0.32488 q 0.151837,0.25553 0.231554,0.32488 0.155634,0.13872 0.372005,0.13872 0.43274,0 0.43274,-0.37964 0,-0.21902 -0.334045,-0.40884 -0.129062,-0.0621 -0.258125,-0.12047 -0.129065,-0.0584 -0.261924,-0.12046 -0.372005,-0.17522 -0.523843,-0.35044 -0.193596,-0.22267 -0.193596,-0.57311 0,-0.4636 0.330251,-0.76658 0.337842,-0.30298 0.819931,-0.30298 0.709847,0 1.055281,0.70452 z m 1.886598,0.16062 v 2.78889 h -0.854095 v -2.78889 H 14.18303 v -0.76658 h 0.364413 v -1.30319 h 0.854095 v 1.30319 h 0.664297 v 0.76658 z m 1.643657,2.38005 q 0,-0.20442 0.155634,-0.35408 0.155637,-0.14967 0.372005,-0.14967 0.216372,0 0.372006,0.14967 0.155636,0.14966 0.155636,0.35773 0,0.21172 -0.155636,0.36139 -0.151838,0.14602 -0.372006,0.14602 -0.223961,0 -0.375801,-0.14602 -0.151838,-0.14601 -0.151838,-0.36504 z m 0,-2.74509 q 0,-0.20077 0.155634,-0.35044 0.155637,-0.14966 0.372005,-0.14966 0.216372,0 0.372006,0.14966 0.155636,0.14967 0.155636,0.35774 0,0.21172 -0.155636,0.36139 -0.151838,0.14602 -0.372006,0.14602 -0.220165,0 -0.375801,-0.14967 -0.151838,-0.14602 -0.151838,-0.36504 z m 6.813775,0.20442 -0.706051,0.36139 q -0.167022,-0.32853 -0.413761,-0.32853 -0.117677,0 -0.201187,0.0767 -0.08351,0.073 -0.08351,0.18982 0,0.20443 0.493478,0.4052 0.679479,0.28108 0.914829,0.51835 0.23535,0.23728 0.23535,0.63882 0,0.51471 -0.39478,0.86149 -0.383394,0.32854 -0.926218,0.32854 -0.930015,0 -1.317205,-0.87245 l 0.728828,-0.32488 q 0.15184,0.25553 0.231554,0.32488 0.155636,0.13872 0.372005,0.13872 0.432743,0 0.432743,-0.37964 0,-0.21902 -0.334045,-0.40884 -0.129065,-0.0621 -0.258128,-0.12047 -0.129063,-0.0584 -0.261921,-0.12046 -0.372006,-0.17522 -0.523846,-0.35044 -0.193594,-0.22267 -0.193594,-0.57311 0,-0.4636 0.330249,-0.76658 0.337842,-0.30298 0.819931,-0.30298 0.709847,0 1.055281,0.70452 z m 1.860029,-0.60596 v 2.04057 q 0,0.88339 0.725029,0.88339 0.725032,0 0.725032,-0.88339 v -2.04057 h 0.854095 v 2.05882 q 0,0.42709 -0.110084,0.73738 -0.106288,0.27742 -0.368209,0.5001 -0.432741,0.36139 -1.100834,0.36139 -0.664294,0 -1.097034,-0.36139 -0.265721,-0.22268 -0.375802,-0.5001 -0.106287,-0.24823 -0.106287,-0.73738 v -2.05882 z m 3.382211,0 h 0.857891 v 0.32853 q 0.447926,-0.42709 1.009731,-0.42709 0.645316,0 1.005932,0.39059 0.311271,0.33219 0.311271,1.08417 v 2.17927 h -0.857891 v -1.9858 q 0,-0.52566 -0.151838,-0.72643 -0.148044,-0.20442 -0.53903,-0.20442 -0.425148,0 -0.60356,0.27012 -0.174615,0.26648 -0.174615,0.93085 v 1.71568 H 29.10121 Z m 4.262883,0 h 0.857891 v 0.32853 q 0.447923,-0.42709 1.009728,-0.42709 0.645316,0 1.005932,0.39059 0.31127,0.33219 0.31127,1.08417 v 2.17927 h -0.85789 v -1.9858 q 0,-0.52566 -0.151838,-0.72643 -0.148044,-0.20442 -0.539028,-0.20442 -0.42515,0 -0.603562,0.27012 -0.174612,0.26648 -0.174612,0.93085 v 1.71568 h -0.857891 z m 7.629909,1.97121 h -2.649589 q 0.03416,0.43804 0.296085,0.69722 0.261924,0.25553 0.671889,0.25553 0.31886,0 0.527639,-0.14602 0.204983,-0.14601 0.466904,-0.54025 l 0.721236,0.38694 q -0.167023,0.27377 -0.353024,0.4709 -0.186004,0.19347 -0.398579,0.32123 -0.212573,0.12411 -0.459312,0.18252 -0.246739,0.0584 -0.535234,0.0584 -0.827521,0 -1.328591,-0.51106 -0.501068,-0.5147 -0.501068,-1.36524 0,-0.84324 0.485885,-1.36525 0.489679,-0.5147 1.298224,-0.5147 0.816135,0 1.290631,0.5001 0.4707,0.49645 0.4707,1.3762 z m -0.876869,-0.67167 q -0.178412,-0.65707 -0.861687,-0.65707 -0.155634,0 -0.292289,0.0474 -0.136655,0.0438 -0.250535,0.13142 -0.110084,0.084 -0.189798,0.20442 -0.07972,0.12046 -0.121473,0.27378 z m 1.81068,-1.29954 h 0.854095 v 0.31758 q 0.23535,-0.23727 0.417558,-0.32488 0.186001,-0.0913 0.440332,-0.0913 0.337842,0 0.706051,0.21172 l -0.390984,0.75198 q -0.242943,-0.16792 -0.474497,-0.16792 -0.69846,0 -0.69846,1.01481 v 1.84344 h -0.854095 z m 5.580082,0 h 0.857891 v 3.55547 h -0.857891 v -0.37233 q -0.527639,0.47455 -1.134997,0.47455 -0.766786,0 -1.267853,-0.53296 -0.497275,-0.54391 -0.497275,-1.35794 0,-0.79944 0.497275,-1.33239 0.497271,-0.53296 1.245078,-0.53296 0.645316,0 1.157772,0.51105 z m -2.027049,1.76679 q 0,0.51105 0.284697,0.83229 0.292291,0.32488 0.73642,0.32488 0.474497,0 0.766786,-0.31394 0.292292,-0.32488 0.292292,-0.82498 0,-0.5001 -0.292292,-0.82499 -0.292289,-0.31758 -0.759196,-0.31758 -0.440333,0 -0.736418,0.32123 -0.292289,0.32489 -0.292289,0.80309 z m 3.962999,-1.76679 h 0.857891 v 0.32853 q 0.447922,-0.42709 1.009728,-0.42709 0.645315,0 1.005935,0.39059 0.311267,0.33219 0.311267,1.08417 v 2.17927 h -0.857888 v -1.9858 q 0,-0.52566 -0.15184,-0.72643 -0.148044,-0.20442 -0.539028,-0.20442 -0.425151,0 -0.603559,0.27012 -0.174615,0.26648 -0.174615,0.93085 v 1.71568 h -0.857891 z m 7.838685,3.47152 q 0,0.25187 -0.019,0.4417 -0.01517,0.19347 -0.04555,0.33948 -0.0911,0.40154 -0.356823,0.68992 -0.501068,0.55486 -1.37794,0.55486 -0.740214,0 -1.218507,-0.38329 -0.493475,-0.39424 -0.569396,-1.09147 h 0.857891 q 0.04935,0.26283 0.163227,0.4052 0.265717,0.33218 0.774378,0.33218 0.937607,0 0.937607,-1.10606 v -0.49646 q -0.508661,0.50011 -1.172958,0.50011 -0.755399,0 -1.237488,-0.52566 -0.485883,-0.53295 -0.485883,-1.33239 0,-0.77753 0.451719,-1.32144 0.485885,-0.57676 1.283041,-0.57676 0.698458,0 1.161569,0.5001 v -0.40154 h 0.854094 z m -0.819931,-1.68648 q 0,-0.51836 -0.288495,-0.82864 -0.292289,-0.31758 -0.747807,-0.31758 -0.485886,0 -0.766786,0.34678 -0.254331,0.31029 -0.254331,0.80309 0,0.4855 0.254331,0.79578 0.277104,0.33949 0.766786,0.33949 0.489682,0 0.774378,-0.34314 0.261924,-0.31028 0.261924,-0.79578 z m 6.400016,-2.52242 -0.239147,1.91645 q -0.01517,0.10587 -0.02279,0.20443 -0.0038,0.0949 -0.0038,0.17886 0,0.27378 0.23535,0.27378 0.330249,0 0.599763,-0.44899 0.265717,-0.4417 0.265717,-1.00751 0,-0.898 -0.652908,-1.47111 -0.649112,-0.58041 -1.65884,-0.58041 -1.055281,0 -1.776516,0.69358 -0.71744,0.68992 -0.71744,1.70838 0,0.56215 0.258128,1.10241 0.261921,0.50741 0.732622,0.83594 0.630133,0.43805 1.579126,0.43805 0.888259,0 1.860027,-0.4344 l 0.05694,-0.0292 0.19739,0.52565 -0.04555,0.0219 q -0.99075,0.45995 -2.065009,0.45995 -1.18814,0 -1.989092,-0.55121 -0.588377,-0.40154 -0.918626,-1.02576 -0.326453,-0.65707 -0.326453,-1.33604 0,-1.23748 0.907237,-2.07707 0.907237,-0.83959 2.239625,-0.83959 1.226099,0 2.053623,0.72277 0.823727,0.71548 0.823727,1.79235 0,0.83228 -0.447926,1.4273 -0.451722,0.60231 -1.059077,0.60231 -0.485885,0 -0.660498,-0.4417 -0.466907,0.45995 -1.040098,0.45995 -0.626337,0 -1.043892,-0.43439 -0.409966,-0.43075 -0.409966,-1.09877 0,-0.71913 0.459312,-1.18273 0.459314,-0.47455 1.153976,-0.47455 0.637725,0 1.028709,0.47455 l 0.05315,-0.40519 z m -0.774378,1.40905 q 0,-0.33949 -0.239147,-0.56581 -0.246739,-0.22632 -0.599765,-0.22632 -0.383395,0 -0.626337,0.28473 -0.246737,0.28108 -0.246737,0.71912 0,0.37964 0.197391,0.62422 0.19739,0.24457 0.50866,0.24457 0.398576,0 0.702254,-0.32488 0.303681,-0.32488 0.303681,-0.75563 z m 3.970585,-0.67167 v 3.55547 h -0.854094 v -3.55547 z m -0.983157,-1.47841 q 0,-0.21537 0.163226,-0.37234 0.16323,-0.15696 0.390987,-0.15696 0.231554,0 0.39478,0.15696 0.163227,0.15332 0.163227,0.37599 0,0.22268 -0.163227,0.37964 -0.15943,0.15697 -0.390984,0.15697 -0.231553,0 -0.394783,-0.15697 -0.163226,-0.15696 -0.163226,-0.38329 z m 4.942359,1.63172 v 1.09147 q -0.292289,-0.34314 -0.523845,-0.4709 -0.227758,-0.13141 -0.535232,-0.13141 -0.482089,0 -0.800949,0.32488 -0.318863,0.32488 -0.318863,0.81404 0,0.5001 0.307474,0.82134 0.31127,0.32123 0.793359,0.32123 0.307475,0 0.542825,-0.12776 0.227757,-0.12412 0.535231,-0.48186 v 1.08417 q -0.520049,0.25918 -1.040095,0.25918 -0.857891,0 -1.434879,-0.53296 -0.576988,-0.53661 -0.576988,-1.33239 0,-0.79579 0.584578,-1.34334 0.58458,-0.54756 1.434878,-0.54756 0.546621,0 1.032506,0.25187 z m 1.681621,-2.76334 v 6.1655 H 70.84555 v -6.1655 z m 0.907231,4.36221 q 0,-0.77023 0.573195,-1.31049 0.573191,-0.54025 1.396918,-0.54025 0.827521,0 1.404509,0.54391 0.569398,0.5439 0.569398,1.33604 0,0.79943 -0.573195,1.33969 -0.576988,0.53661 -1.415897,0.53661 -0.831319,0 -1.393122,-0.54756 -0.561806,-0.54026 -0.561806,-1.35795 z m 0.873076,0.0146 q 0,0.53295 0.296085,0.84323 0.303678,0.31394 0.800952,0.31394 0.501068,0 0.80095,-0.31029 0.299881,-0.31028 0.299881,-0.82863 0,-0.51836 -0.299881,-0.82864 -0.303678,-0.31393 -0.80095,-0.31393 -0.489682,0 -0.793359,0.31393 -0.303678,0.31393 -0.303678,0.81039 z m 4.828485,-1.76679 v 2.04057 q 0,0.88339 0.725029,0.88339 0.725032,0 0.725032,-0.88339 v -2.04057 h 0.854094 v 2.05882 q 0,0.42709 -0.110084,0.73738 -0.106287,0.27742 -0.368209,0.5001 -0.43274,0.36138 -1.100833,0.36138 -0.664294,0 -1.097034,-0.36138 -0.265721,-0.22268 -0.375802,-0.5001 -0.106288,-0.24823 -0.106288,-0.73738 v -2.05882 z m 6.107721,-2.61003 h 0.857891 v 6.1655 h -0.857891 v -0.37233 q -0.504864,0.47454 -1.142587,0.47454 -0.759196,0 -1.260264,-0.53295 -0.497274,-0.54391 -0.497274,-1.35794 0,-0.79579 0.497274,-1.32874 0.493476,-0.53661 1.241282,-0.53661 0.649112,0 1.161569,0.51105 z m -2.027049,4.37682 q 0,0.51105 0.284696,0.83228 0.292292,0.32489 0.736421,0.32489 0.474497,0 0.766786,-0.31394 0.292291,-0.32488 0.292291,-0.82498 0,-0.50011 -0.292291,-0.82499 -0.292289,-0.31758 -0.759193,-0.31758 -0.440333,0 -0.736421,0.32123 -0.292289,0.32489 -0.292289,0.80309 z m 4.095857,1.37984 q 0,-0.20442 0.155637,-0.35409 0.155634,-0.14966 0.372005,-0.14966 0.216369,0 0.372005,0.14966 0.155634,0.14967 0.155634,0.35774 0,0.21172 -0.155634,0.36139 -0.15184,0.14601 -0.372005,0.14601 -0.223964,0 -0.375801,-0.14601 -0.151841,-0.14602 -0.151841,-0.36504 z m 5.143549,-2.99332 v 1.09147 q -0.292292,-0.34314 -0.523846,-0.4709 -0.227757,-0.13141 -0.535231,-0.13141 -0.48209,0 -0.800953,0.32488 -0.31886,0.32488 -0.31886,0.81404 0,0.5001 0.307474,0.82134 0.311268,0.32123 0.793357,0.32123 0.307474,0 0.542824,-0.12776 0.227761,-0.12412 0.535235,-0.48186 v 1.08417 q -0.52005,0.25917 -1.040099,0.25917 -0.857891,0 -1.434879,-0.53295 -0.576988,-0.53661 -0.576988,-1.33239 0,-0.79579 0.584581,-1.34335 0.584581,-0.54755 1.434879,-0.54755 0.54662,0 1.032506,0.25187 z m 0.652899,1.59887 q 0,-0.77023 0.573192,-1.31049 0.573194,-0.54025 1.396921,-0.54025 0.827521,0 1.404509,0.5439 0.569398,0.54391 0.569398,1.33605 0,0.79943 -0.573194,1.33969 -0.576988,0.5366 -1.415898,0.5366 -0.831319,0 -1.393122,-0.54755 -0.561806,-0.54026 -0.561806,-1.35795 z m 0.873076,0.0146 q 0,0.53296 0.296085,0.84324 0.303678,0.31394 0.800952,0.31394 0.501068,0 0.80095,-0.31029 0.299881,-0.31028 0.299881,-0.82864 0,-0.51835 -0.299881,-0.82863 -0.303678,-0.31394 -0.80095,-0.31394 -0.489681,0 -0.793359,0.31394 -0.303678,0.31393 -0.303678,0.81038 z m 3.97439,-1.76678 h 0.854095 v 0.32853 q 0.246736,-0.24823 0.421351,-0.33583 0.186004,-0.0913 0.466907,-0.0913 0.626334,0 0.990747,0.52565 0.40238,-0.52565 1.08945,-0.52565 1.24887,0 1.24887,1.4565 v 2.19753 h -0.85789 v -1.97485 q 0,-0.51106 -0.12906,-0.72278 -0.13286,-0.21538 -0.43654,-0.21538 -0.35302,0 -0.51625,0.25553 -0.15943,0.25553 -0.15943,0.82134 v 1.83614 h -0.857891 v -1.96391 q 0,-0.9491 -0.569399,-0.9491 -0.360616,0 -0.527639,0.25918 -0.163226,0.25918 -0.163226,0.81769 v 1.83614 H 97.12888 Z M 9.6639221,241.8911 v 4.83676 H 8.7794601 V 241.8911 H 7.4318904 v -0.79943 h 3.5758076 v 0.79943 z m 5.0182789,3.2525 h -2.649589 q 0.03416,0.43804 0.296085,0.69722 0.261921,0.25553 0.671887,0.25553 0.318863,0 0.527642,-0.14602 0.204982,-0.14601 0.466904,-0.54026 l 0.721235,0.38695 q -0.167022,0.27378 -0.353026,0.4709 -0.186002,0.19347 -0.398577,0.32123 -0.212575,0.12411 -0.459314,0.18252 -0.246736,0.0584 -0.535232,0.0584 -0.827523,0 -1.328591,-0.51106 -0.501068,-0.5147 -0.501068,-1.36524 0,-0.84324 0.485883,-1.36525 0.489682,-0.5147 1.298223,-0.5147 0.816135,0 1.290634,0.5001 0.470701,0.49645 0.470701,1.3762 z m -0.876869,-0.67167 q -0.178411,-0.65707 -0.861687,-0.65707 -0.155637,0 -0.292292,0.0474 -0.136655,0.0438 -0.250532,0.13142 -0.110084,0.0839 -0.189801,0.20442 -0.07971,0.12046 -0.12147,0.27378 z m 2.664772,-3.90957 v 6.1655 h -0.854095 v -6.1655 z m 4.448884,4.58124 h -2.649593 q 0.03416,0.43804 0.296088,0.69722 0.261922,0.25553 0.671887,0.25553 0.318863,0 0.527642,-0.14602 0.204983,-0.14601 0.466904,-0.54026 l 0.721236,0.38695 q -0.167023,0.27378 -0.353027,0.4709 -0.186001,0.19347 -0.398576,0.32123 -0.212576,0.12411 -0.459315,0.18252 -0.246739,0.0584 -0.535231,0.0584 -0.827524,0 -1.328591,-0.51106 -0.501068,-0.5147 -0.501068,-1.36524 0,-0.84324 0.485882,-1.36525 0.489682,-0.5147 1.298224,-0.5147 0.816134,0 1.290631,0.5001 0.470703,0.49645 0.470703,1.3762 z m -0.876872,-0.67167 q -0.178409,-0.65707 -0.861684,-0.65707 -0.155637,0 -0.292292,0.0474 -0.136655,0.0438 -0.250533,0.13142 -0.110084,0.0839 -0.1898,0.20442 -0.07971,0.12046 -0.12147,0.27378 z m 1.943542,1.84709 q 0,-0.20442 0.155633,-0.35409 0.155637,-0.14966 0.372006,-0.14966 0.216371,0 0.372005,0.14966 0.155637,0.14967 0.155637,0.35774 0,0.21172 -0.155637,0.36139 -0.151837,0.14602 -0.372005,0.14602 -0.223962,0 -0.375802,-0.14602 -0.151837,-0.14601 -0.151837,-0.36504 z m 0,-2.74509 q 0,-0.20077 0.155633,-0.35044 0.155637,-0.14966 0.372006,-0.14966 0.216371,0 0.372005,0.14966 0.155637,0.14967 0.155637,0.35774 0,0.21173 -0.155637,0.36139 -0.151837,0.14602 -0.372005,0.14602 -0.220165,0 -0.375802,-0.14967 -0.151837,-0.14601 -0.151837,-0.36504 z m 4.502023,0.56216 v -0.67897 h 1.670229 v -1.57697 h 0.702257 v 1.57697 h 1.670229 v 0.67897 h -1.670229 v 1.57697 H 28.15791 v -1.57697 z m 8.256246,1.01846 h 0.622541 v 0.77388 h -0.622541 v 0.79943 h -0.884462 v -0.79943 h -2.877347 l 3.761809,-5.25656 z m -0.884462,0 v -1.88725 l -1.351366,1.88725 z m 4.900606,-4.26 0.649112,0.46725 -1.400715,1.83249 q 0.113877,-0.0146 0.193594,-0.0219 0.07972,-0.007 0.125266,-0.007 0.713643,0 1.233692,0.52566 0.516253,0.51835 0.516253,1.24843 0,0.77388 -0.576988,1.32874 -0.573192,0.55121 -1.37794,0.55121 -0.797153,0 -1.396919,-0.54391 -0.588374,-0.54391 -0.588374,-1.28859 0,-0.66802 0.573192,-1.41635 z m 0.455515,4.09938 q 0,-0.449 -0.322656,-0.75928 -0.326456,-0.31393 -0.785767,-0.31393 -0.463111,0 -0.785767,0.31028 -0.322659,0.31028 -0.322659,0.75198 0,0.4417 0.322659,0.75198 0.322656,0.31028 0.789563,0.31028 0.455515,0 0.778174,-0.31028 0.326453,-0.31393 0.326453,-0.74103 z m 6.984596,-3.10648 H 43.30765 v -0.79578 h 4.369167 l -3.69728,5.82967 -0.702255,-0.4271 z m 3.76181,-0.9929 0.649111,0.46725 -1.400715,1.83249 q 0.113881,-0.0146 0.193597,-0.0219 0.07971,-0.007 0.125266,-0.007 0.713643,0 1.233693,0.52566 0.516253,0.51835 0.516253,1.24843 0,0.77388 -0.576991,1.32874 -0.573192,0.55121 -1.377937,0.55121 -0.797156,0 -1.396919,-0.54391 -0.588377,-0.54391 -0.588377,-1.28859 0,-0.66802 0.573192,-1.41635 z m 0.455518,4.09938 q 0,-0.449 -0.32266,-0.75928 -0.326452,-0.31393 -0.785767,-0.31393 -0.463107,0 -0.785766,0.31028 -0.322657,0.31028 -0.322657,0.75198 0,0.4417 0.322657,0.75198 0.322659,0.31028 0.789563,0.31028 0.455518,0 0.778174,-0.31028 0.326456,-0.31393 0.326456,-0.74103 z m 6.984593,-3.10648 h -2.892532 v -0.79578 h 4.369164 l -3.697278,5.82967 -0.702257,-0.4271 z m 1.833458,1.98581 q 0,-1.34699 0.652908,-2.15007 0.584578,-0.72643 1.415898,-0.72643 0.831319,0 1.4159,0.72643 0.652905,0.80308 0.652905,2.18658 0,1.37984 -0.652905,2.18293 -0.584581,0.72642 -1.412104,0.72642 -0.827523,0 -1.419694,-0.72642 -0.652908,-0.80309 -0.652908,-2.21944 z m 0.869277,0.004 q 0,0.93815 0.337841,1.55872 0.337842,0.60961 0.861688,0.60961 0.520049,0 0.861687,-0.60961 0.341637,-0.60597 0.341637,-1.52952 0,-0.92355 -0.341637,-1.53316 -0.341638,-0.60596 -0.861687,-0.60596 -0.516253,0 -0.857891,0.60596 -0.341638,0.60232 -0.341638,1.50396 z m 6.650548,-2.98237 0.649112,0.46725 -1.400715,1.8325 q 0.113877,-0.0146 0.193594,-0.0219 0.07972,-0.007 0.125266,-0.007 0.713643,0 1.233692,0.52565 0.516253,0.51836 0.516253,1.24844 0,0.77388 -0.576988,1.32873 -0.573191,0.55121 -1.37794,0.55121 -0.797153,0 -1.396918,-0.5439 -0.588377,-0.54391 -0.588377,-1.28859 0,-0.66802 0.573194,-1.41635 z m 0.455515,4.09939 q 0,-0.449 -0.322656,-0.75928 -0.326456,-0.31393 -0.785767,-0.31393 -0.463111,0 -0.785767,0.31028 -0.322659,0.31028 -0.322659,0.75198 0,0.44169 0.322659,0.75198 0.322656,0.31028 0.789563,0.31028 0.455515,0 0.778175,-0.31028 0.326452,-0.31394 0.326452,-0.74103 z m 5.637027,0.9345 h 2.182686 v 0.79943 h -3.936425 l 2.034642,-2.3691 q 0.299881,-0.35409 0.501068,-0.61326 0.204982,-0.25918 0.31127,-0.4344 0.216371,-0.34314 0.216371,-0.61692 0,-0.39424 -0.288495,-0.66072 -0.288493,-0.26647 -0.713643,-0.26647 -0.888258,0 -1.017321,1.01115 h -0.880666 q 0.212576,-1.78138 1.871416,-1.78138 0.800949,0 1.343773,0.48915 0.546621,0.48915 0.546621,1.21193 0,0.45994 -0.254329,0.90164 -0.129063,0.22998 -0.379598,0.54756 -0.246739,0.31393 -0.626337,0.74468 z m 4.798111,0 h 2.182686 v 0.79943 h -3.936427 l 2.034641,-2.3691 q 0.299885,-0.35409 0.501071,-0.61326 0.204983,-0.25918 0.31127,-0.4344 0.216369,-0.34314 0.216369,-0.61692 0,-0.39424 -0.288492,-0.66072 -0.288496,-0.26647 -0.713644,-0.26647 -0.888258,0 -1.01732,1.01115 h -0.880669 q 0.212575,-1.78138 1.871415,-1.78138 0.800952,0 1.343777,0.48915 0.54662,0.48915 0.54662,1.21193 0,0.45994 -0.254332,0.90164 -0.129062,0.22998 -0.379594,0.54756 -0.24674,0.31393 -0.626337,0.74468 z m 6.601203,-2.13183 q -0.645316,-0.43804 -0.645316,-1.19367 0,-0.68628 0.489682,-1.14623 0.493475,-0.45994 1.2261,-0.45994 0.728828,0 1.214711,0.45994 0.485885,0.4563 0.485885,1.14988 0,0.72642 -0.641519,1.18637 0.353027,0.18252 0.554213,0.53296 0.204983,0.35044 0.204983,0.78848 0,0.74833 -0.508661,1.22653 -0.508663,0.4782 -1.30202,0.4782 -0.812338,0 -1.33998,-0.48185 -0.531435,-0.48185 -0.531435,-1.21193 0,-0.9491 0.793357,-1.32874 z m 0.186004,-1.19733 q 0,0.36139 0.254328,0.60597 0.258128,0.24823 0.622541,0.24823 0.360619,0 0.618744,-0.24823 0.258125,-0.24823 0.258125,-0.59501 0,-0.34679 -0.258125,-0.59502 -0.258125,-0.24822 -0.618744,-0.24822 -0.360616,0 -0.618744,0.24822 -0.258125,0.24823 -0.258125,0.58406 z m -0.110084,2.49687 q 0,0.39059 0.280903,0.67167 0.284699,0.27743 0.690868,0.27743 0.402373,0 0.687069,-0.27378 0.284699,-0.27743 0.284699,-0.66437 0,-0.39059 -0.284699,-0.66437 -0.284696,-0.27378 -0.687069,-0.27378 -0.39858,0 -0.687072,0.27378 -0.284699,0.27378 -0.284699,0.65342 z m 5.116968,1.82519 -0.649111,-0.4636 1.400714,-1.83614 q -0.11388,0.0146 -0.193596,0.0219 -0.07971,0.007 -0.129063,0.007 -0.709846,0 -1.229896,-0.52201 -0.516253,-0.51835 -0.516253,-1.24843 0,-0.77753 0.573195,-1.32874 0.576988,-0.55486 1.381733,-0.55486 0.800952,0 1.393123,0.54756 0.592173,0.54391 0.592173,1.28494 0,0.65707 -0.576988,1.42 z m -0.455518,-4.10303 q 0,0.4563 0.32266,0.76658 0.326452,0.31393 0.785766,0.31393 0.459312,0 0.781971,-0.31028 0.326453,-0.31393 0.326453,-0.75563 0,-0.4417 -0.326453,-0.75563 -0.322659,-0.31028 -0.785767,-0.31028 -0.455518,0 -0.778174,0.31028 -0.326456,0.31393 -0.326456,0.74103 z"
       id="text2"
       style="font-size:26.847px;font-family:Futura;-inkscape-font-specification:'Futura, Normal';text-align:center;text-anchor:middle;white-space:pre;shape-padding:1.85225;stroke:#241f31;stroke-width:0.107506;paint-order:stroke markers fill"
       inkscape:label="text2"
       aria-label="Epost:	sunnerang@icloud.com&#10;Tele:	+46 76 706 22 89" />
  </g>
</svg>
